<?xml version="1.0" encoding="UTF-8"?>
<svg width="700pt" height="700pt" version="1.1" viewBox="0 0 700 700" xmlns="http://www.w3.org/2000/svg">
 <g>
  <path d="m455 455h-210c-29.75 0-52.5-22.75-52.5-52.5v-105c0-29.75 22.75-52.5 52.5-52.5h210c29.75 0 52.5 22.75 52.5 52.5v105c0 29.75-22.75 52.5-52.5 52.5zm-210-175c-10.5 0-17.5 7-17.5 17.5v105c0 10.5 7 17.5 17.5 17.5h210c10.5 0 17.5-7 17.5-17.5v-105c0-10.5-7-17.5-17.5-17.5z"/>
  <path d="m542.5 350h-52.5c-10.5 0-17.5-7-17.5-17.5s7-17.5 17.5-17.5h52.5c10.5 0 17.5 7 17.5 17.5s-7 17.5-17.5 17.5z"/>
  <path d="m210 350h-52.5c-10.5 0-17.5-7-17.5-17.5s7-17.5 17.5-17.5h52.5c10.5 0 17.5 7 17.5 17.5s-7 17.5-17.5 17.5z"/>
  <path d="m455 280c-10.5 0-17.5-7-17.5-17.5v-87.5c0-10.5 7-17.5 17.5-17.5s17.5 7 17.5 17.5v87.5c0 10.5-7 17.5-17.5 17.5z"/>
  <path d="m245 280c-10.5 0-17.5-7-17.5-17.5v-87.5c0-10.5 7-17.5 17.5-17.5s17.5 7 17.5 17.5v87.5c0 10.5-7 17.5-17.5 17.5z"/>
  <path d="m455 192.5c-29.75 0-52.5-22.75-52.5-52.5s22.75-52.5 52.5-52.5 52.5 22.75 52.5 52.5-22.75 52.5-52.5 52.5zm0-70c-10.5 0-17.5 7-17.5 17.5s7 17.5 17.5 17.5 17.5-7 17.5-17.5-7-17.5-17.5-17.5z"/>
  <path d="m245 192.5c-29.75 0-52.5-22.75-52.5-52.5s22.75-52.5 52.5-52.5 52.5 22.75 52.5 52.5-22.75 52.5-52.5 52.5zm0-70c-10.5 0-17.5 7-17.5 17.5s7 17.5 17.5 17.5 17.5-7 17.5-17.5-7-17.5-17.5-17.5z"/>
  <path d="m420 70c-5.25 0-8.75-1.75-12.25-5.25l-22.75-22.75-22.75 22.75c-7 7-17.5 7-24.5 0l-22.75-22.75-22.75 22.75c-7 7-17.5 7-24.5 0s-7-17.5 0-24.5l35-35c7-7 17.5-7 24.5 0l22.75 22.75 22.75-22.75c7-7 17.5-7 24.5 0l35 35c7 7 7 17.5 0 24.5-3.5 3.5-7 5.25-12.25 5.25z"/>
  <path d="m267.75 560c-10.5 0-17.5-7-17.5-17.5v-105c0-10.5 7-17.5 17.5-17.5s17.5 7 17.5 17.5v105c0 10.5-7 17.5-17.5 17.5z"/>
  <path d="m306.25 560h-75.25c-10.5 0-17.5-7-17.5-17.5s7-17.5 17.5-17.5h75.25c10.5 0 17.5 7 17.5 17.5s-8.75 17.5-17.5 17.5z"/>
  <path d="m430.5 560c-10.5 0-17.5-7-17.5-17.5v-105c0-10.5 7-17.5 17.5-17.5s17.5 7 17.5 17.5v105c0 10.5-8.75 17.5-17.5 17.5z"/>
  <path d="m467.25 560h-75.25c-10.5 0-17.5-7-17.5-17.5s7-17.5 17.5-17.5h75.25c10.5 0 17.5 7 17.5 17.5s-8.75 17.5-17.5 17.5z"/>
  <path d="m402.5 337.75c-5.25 0-8.75-1.75-12.25-5.25s-5.25-7-5.25-12.25 1.75-8.75 5.25-12.25c7-7 17.5-7 24.5 0 3.5 3.5 5.25 7 5.25 12.25s-1.75 8.75-5.25 12.25-7 5.25-12.25 5.25z"/>
  <path d="m297.5 337.75c-5.25 0-8.75-1.75-12.25-5.25s-5.25-7-5.25-12.25 1.75-8.75 5.25-12.25c7-7 17.5-7 24.5 0 3.5 3.5 5.25 7 5.25 12.25s-1.75 8.75-5.25 12.25-7 5.25-12.25 5.25z"/>
  <path d="m376.25 397.25h-52.5c-10.5 0-17.5-7-17.5-17.5s7-17.5 17.5-17.5h52.5c10.5 0 17.5 7 17.5 17.5s-8.75 17.5-17.5 17.5z"/>
 </g>
</svg>
