<?xml version="1.0" encoding="UTF-8"?>
<svg width="700pt" height="700pt" version="1.1" viewBox="0 0 700 700" xmlns="http://www.w3.org/2000/svg">
 <g>
  <path d="m490 560h-280c-39.668 0-70-30.332-70-70v-93.332c0-39.668 30.332-70 70-70h280c39.668 0 70 30.332 70 70v93.332c0 39.668-30.332 70-70 70zm-280-186.67c-14 0-23.332 9.332-23.332 23.332v93.332c0 14 9.332 23.332 23.332 23.332h280c14 0 23.332-9.332 23.332-23.332v-93.332c0-14-9.332-23.332-23.332-23.332z"/>
  <path d="m606.67 466.67h-70c-14 0-23.332-9.332-23.332-23.332s9.332-23.332 23.332-23.332h70c14 0 23.332 9.332 23.332 23.332 0 13.996-9.332 23.332-23.332 23.332z"/>
  <path d="m163.33 466.67h-70c-14 0-23.332-9.332-23.332-23.332s9.332-23.332 23.332-23.332h70c14 0 23.332 9.332 23.332 23.332 0.003907 13.996-9.332 23.332-23.332 23.332z"/>
  <path d="m420 466.67c-7 0-11.668-2.332-16.332-7-4.668-4.668-7-9.3359-7-16.336s2.332-11.668 7-16.332c9.332-9.332 23.332-9.332 32.668 0 4.668 4.668 7 9.332 7 16.332s-2.332 11.668-7 16.332c-4.668 4.668-9.3359 7.0039-16.336 7.0039z"/>
  <path d="m280 466.67c-7 0-11.668-2.332-16.332-7-4.668-4.668-7-9.3359-7-16.336s2.332-11.668 7-16.332c9.332-9.332 23.332-9.332 32.668 0 4.6641 4.668 6.9961 9.332 6.9961 16.332s-2.332 11.668-7 16.332c-4.6641 4.668-9.332 7.0039-16.332 7.0039z"/>
  <path d="m490 373.33c-14 0-23.332-9.332-23.332-23.332v-116.67c0-14 9.332-23.332 23.332-23.332s23.332 9.332 23.332 23.332v116.67c0 14-9.332 23.332-23.332 23.332z"/>
  <path d="m210 373.33c-14 0-23.332-9.332-23.332-23.332v-116.67c0-14 9.332-23.332 23.332-23.332s23.332 9.332 23.332 23.332v116.67c0 14-9.332 23.332-23.332 23.332z"/>
  <path d="m490 256.67c-39.668 0-70-30.332-70-70s30.332-70 70-70 70 30.332 70 70c0 39.664-30.332 70-70 70zm0-93.336c-14 0-23.332 9.332-23.332 23.332s9.332 23.332 23.332 23.332 23.332-9.332 23.332-23.332c0-13.996-9.332-23.332-23.332-23.332z"/>
  <path d="m210 256.67c-39.668 0-70-30.332-70-70s30.332-70 70-70 70 30.332 70 70c0 39.664-30.332 70-70 70zm0-93.336c-14 0-23.332 9.3359-23.332 23.336s9.332 23.332 23.332 23.332 23.332-9.332 23.332-23.332-9.332-23.336-23.332-23.336z"/>
  <path d="m443.33 93.332c-7 0-11.668-2.332-16.332-7l-30.332-30.332-30.332 30.332c-9.332 9.332-23.332 9.332-32.668 0l-30.336-30.332-30.332 30.332c-9.332 9.332-23.332 9.332-32.668 0-9.332-9.332-9.332-23.332 0-32.668l46.668-46.668c9.332-9.332 23.332-9.332 32.668 0l30.332 30.336 30.332-30.332c9.332-9.332 23.332-9.332 32.668 0l46.668 46.668c9.332 9.332 9.332 23.332 0 32.668-4.668 4.6641-9.3359 6.9961-16.336 6.9961z"/>
 </g>
</svg>
